<?xml version="1.0" encoding="UTF-8"?>
<svg id="Capa_2" data-name="Capa 2" xmlns="http://www.w3.org/2000/svg" viewBox="0 0 2568.38 885.64">
  <defs>
    <style>
      .cls-1 {
        fill: #006caa;
      }

      .cls-1, .cls-2 {
        stroke-width: 0px;
      }

      .cls-2 {
        fill: #69bbdd;
      }
    </style>
  </defs>
  <g id="Layer_1" data-name="Layer 1">
    <g>
      <g>
        <path class="cls-1" d="m1071.29,681.58c16.65,0,33.58-3.46,50.79-10.41,17.2-6.93,32.19-15.95,44.96-27.06,4.99-3.88,9.99-5.83,14.98-5.83,4.44,0,7.49,1.67,9.16,4.99l24.14,34.14c1.67,2.23,2.5,4.73,2.5,7.49,0,3.89-1.67,7.22-5,9.99-3.33,2.78-6.38,4.99-9.16,6.66-18.31,12.78-38.58,23.73-60.78,32.88-22.21,9.16-46.08,13.74-71.6,13.74-29.43,0-57.17-5.55-83.26-16.66-26.09-11.09-48.7-26.22-67.85-45.37-19.15-19.15-34.28-41.76-45.37-67.85-11.11-26.09-16.65-53.84-16.65-83.26s5.54-57.16,16.65-83.26c11.1-26.09,26.23-48.84,45.37-68.27,19.15-19.42,41.76-34.68,67.85-45.79,26.08-11.1,53.83-16.66,83.26-16.66,22.2,0,43.71,3.33,64.53,9.99,20.81,6.67,42.04,17.77,63.69,33.31,8.87,6.12,13.32,11.66,13.32,16.65,0,1.12-.14,2.64-.41,4.58-.29,1.95-.98,3.47-2.08,4.58-5.11,8.79-10.23,17.58-15.34,26.38-1.01,1.45-2.03,2.9-3.04,4.35-.79,1.44-2.63,4.31-6.15,6.52-.86.54-4.46,2.71-8.78,2.71-3.33,0-7.78-2.21-13.32-6.66-12.78-9.99-26.93-18.45-42.46-25.4-15.55-6.93-32.2-10.41-49.96-10.41-19.98,0-38.86,3.89-56.61,11.66-17.77,7.78-33.31,18.46-46.62,32.06-13.32,13.6-23.87,29.28-31.64,47.03-7.78,17.77-11.66,36.63-11.66,56.62s3.87,38.85,11.66,56.61c7.76,17.77,18.32,33.3,31.64,46.62,13.32,13.32,28.85,23.87,46.62,31.64,17.75,7.78,36.63,11.66,56.61,11.66Z"/>
        <path class="cls-1" d="m1550.34,720.13l-7.58-36.96c-12.78,15.91-28.18,30.58-46.2,44.02-18.04,13.44-40.11,20.16-66.19,20.16-23.87,0-46.08-4.58-66.6-13.73-20.54-9.16-38.58-21.51-54.12-37.05-15.55-15.54-27.76-33.85-36.63-54.95-8.89-21.09-13.32-43.57-13.32-67.44v-228.12c0-4.44,1.39-8.32,4.2-11.66,2.81-3.33,7.03-4.99,12.64-4.99h37.05c7.86,0,13.05,1.67,15.57,5.01,2.53,3.35,3.8,8.63,3.8,15.85v225.33c0,13.91,2.9,26.99,8.71,39.24,5.8,12.24,13.54,22.95,23.22,32.13,9.68,9.19,20.87,16.42,33.59,21.7,12.71,5.28,25.98,7.93,39.8,7.93s26.12-2.64,38.56-7.93c12.43-5.27,23.35-12.38,32.75-21.28,9.39-8.9,17.13-19.47,23.22-31.71,6.07-12.24,9.4-25.31,9.95-39.22v-228.69c0-12.22,6.45-18.35,19.37-18.35h34.53c12.9,0,19.37,6.11,19.37,18.32v372.16c0,12.21-6.18,18.32-18.53,18.32h-27.79c-12.92,0-19.37-6.03-19.37-18.07Z"/>
        <path class="cls-1" d="m1709.84,717.38V140.42c0-6.1,2.21-10.95,6.66-14.57,4.44-3.6,10.26-5.41,17.49-5.41h24.14c15.54,0,23.31,6.69,23.31,20.04l.16,248.83c13.35-19.65,30.58-35.65,51.72-48.01,21.14-12.36,45.9-18.54,74.27-18.54,26.7,0,51.73,5.56,75.09,16.65,23.36,11.11,43.65,26.23,60.9,45.37,17.24,19.15,30.86,41.63,40.87,67.44,10.02,25.81,15.03,53.42,15.03,82.84s-5.01,57.03-15.03,82.84c-10.01,25.81-23.65,48.29-40.9,67.44-17.25,19.15-37.57,34.14-60.95,44.96-23.38,10.83-48.42,16.23-75.13,16.23s-50.93-5.82-72.62-17.49c-21.7-11.65-39.51-26.91-53.42-45.79v34.14c0,13.88-7.78,20.81-23.31,20.81h-24.98c-15.55,0-23.31-6.93-23.31-20.81Zm64.94-181.09c0,19.37,3.46,37.64,10.41,54.8,6.93,17.16,16.09,32.23,27.48,45.24,11.37,13.01,24.69,23.25,39.96,30.72,15.26,7.46,31.22,11.2,47.88,11.2s32.6-3.74,47.87-11.2c15.26-7.47,28.58-17.71,39.96-30.72,11.37-13.01,20.53-28.09,27.48-45.24,6.93-17.16,10.41-35.43,10.41-54.8s-3.47-37.77-10.41-55.21c-6.95-17.43-16.1-32.64-27.48-45.65-11.38-13.01-24.71-23.25-39.96-30.71-15.27-7.47-31.22-11.22-47.87-11.22s-32.61,3.75-47.88,11.22c-15.27,7.46-28.59,17.7-39.96,30.71-11.38,13.01-20.54,28.21-27.48,45.65-6.95,17.43-10.41,35.84-10.41,55.21Z"/>
        <path class="cls-1" d="m2141.27,535.05c0-29.41,5.54-57.16,16.65-83.26,11.1-26.09,26.23-48.84,45.37-68.27,19.15-19.42,41.76-34.68,67.85-45.79,26.08-11.1,53.83-16.66,83.26-16.66s57.16,5.55,83.26,16.66c26.08,11.1,48.84,26.37,68.27,45.79,19.42,19.43,34.68,42.19,45.79,68.27,11.1,26.09,16.66,53.84,16.66,83.26s-5.56,57.17-16.66,83.26c-11.11,26.09-26.37,48.7-45.79,67.85-19.44,19.15-42.19,34.28-68.27,45.37-26.09,11.1-53.84,16.66-83.26,16.66s-57.17-5.55-83.26-16.66c-26.09-11.09-48.71-26.22-67.85-45.37-19.15-19.15-34.28-41.76-45.37-67.85-11.11-26.09-16.65-53.84-16.65-83.26Zm67.44,0c0,19.98,3.88,38.85,11.66,56.61,7.76,17.77,18.17,33.3,31.22,46.62,13.04,13.32,28.44,23.87,46.21,31.64,17.75,7.78,36.63,11.66,56.61,11.66s38.85-3.87,56.61-11.66c17.76-7.77,33.31-18.32,46.63-31.64,13.32-13.32,23.86-28.85,31.63-46.62,7.77-17.76,11.66-36.63,11.66-56.61s-3.89-38.85-11.66-56.62c-7.78-17.75-18.32-33.43-31.63-47.03-13.32-13.6-28.87-24.28-46.63-32.06-17.77-7.77-36.63-11.66-56.61-11.66s-38.86,3.89-56.61,11.66c-17.77,7.78-33.17,18.46-46.21,32.06-13.05,13.6-23.46,29.28-31.22,47.03-7.78,17.77-11.66,36.63-11.66,56.62Z"/>
      </g>
      <g>
        <path class="cls-2" d="m1710.09,859.5c-.21-.52-.29-1.11-.23-1.79.05-.68.39-1.12,1.01-1.33l7.79-3.12c.83-.41,1.58-.33,2.26.23.67.57,1.11,1.28,1.32,2.11.63,1.56,1.5,2.88,2.65,3.97,1.14,1.09,2.42,1.97,3.82,2.65,1.4.68,2.8,1.17,4.21,1.48,1.4.31,2.62.47,3.66.47,1.76,0,3.51-.23,5.22-.7,1.72-.47,3.27-1.14,4.67-2.03s2.54-1.95,3.43-3.19c.88-1.25,1.33-2.65,1.33-4.21,0-1.76-.44-3.27-1.33-4.52-.88-1.25-2.05-2.34-3.51-3.27-1.45-.94-3.14-1.74-5.06-2.42-1.92-.68-3.97-1.32-6.15-1.95-6.85-1.76-12.36-4.57-16.52-8.41-4.15-3.84-6.23-8.78-6.23-14.8,0-3.22.6-6.18,1.8-8.88,1.19-2.7,2.88-5.01,5.06-6.94,2.18-1.92,4.8-3.43,7.87-4.52,3.06-1.09,6.46-1.64,10.2-1.64,5.82,0,10.52,1.35,14.1,4.05,3.58,2.7,6.72,6.38,9.43,11.06.21.42.37.86.47,1.33.1.47-.1.91-.63,1.33l-6.38,4.52c-.83.62-1.56.6-2.18-.08-.62-.68-1.3-1.48-2.02-2.42-1.46-2.08-3.23-3.86-5.3-5.37-2.08-1.5-4.52-2.26-7.32-2.26-3.74,0-6.78,1.01-9.12,3.04-2.34,2.03-3.51,4.28-3.51,6.78,0,1.56.39,2.93,1.17,4.13.78,1.2,1.8,2.21,3.04,3.04,1.24.83,2.62,1.51,4.13,2.03,1.5.52,2.98.99,4.44,1.41,8.31,2.08,14.82,5.17,19.55,9.27,4.73,4.1,7.09,9.27,7.09,15.5,0,3.43-.7,6.54-2.1,9.35-1.41,2.81-3.33,5.17-5.77,7.09-2.44,1.92-5.35,3.4-8.72,4.44-3.38,1.04-7.09,1.56-11.14,1.56-2.8,0-5.6-.37-8.41-1.09-2.81-.72-5.43-1.79-7.87-3.19-2.44-1.4-4.55-3.16-6.31-5.29-1.76-2.13-3.06-4.59-3.89-7.4Z"/>
        <path class="cls-2" d="m1788.33,802.27l.47,6.76c2.08-2.97,5.01-5.64,8.81-8,3.79-2.36,8.12-3.54,13.01-3.54,6.13,0,11.01,1.59,14.65,4.75,3.63,3.17,6.54,6.88,8.72,11.14,2.4-4.67,5.78-8.54,10.16-11.61,4.38-3.06,9.48-4.59,15.31-4.59,4.48,0,8.44.86,11.88,2.57,3.43,1.72,6.35,4.05,8.75,7.01,2.4,2.96,4.22,6.39,5.47,10.28,1.25,3.89,1.87,8.02,1.87,12.38v41.75c0,1.25-.37,2.21-1.1,2.88-.74.68-1.69,1.01-2.84,1.01h-5.68c-2.73,0-4.1-1.25-4.1-3.75v-42.16c0-5.21-1.27-9.63-3.82-13.28-2.54-3.64-6.72-5.46-12.54-5.46-2.28,0-4.59.47-6.93,1.41-2.34.94-4.42,2.26-6.23,3.99-1.82,1.72-3.3,3.72-4.44,6.01-1.14,2.29-1.71,4.78-1.71,7.49v41.85c0,2.6-1.25,3.91-3.74,3.91h-6.23c-1.35,0-2.26-.31-2.73-.94-.46-.62-.7-1.56-.7-2.81v-42.16c0-5.31-1.32-9.76-3.97-13.35-2.65-3.6-6.83-5.39-12.54-5.39-2.5,0-4.91.5-7.25,1.48-2.34.99-4.41,2.32-6.23,3.98-1.82,1.67-3.24,3.62-4.28,5.86-1.04,2.24-1.56,4.66-1.56,7.26v42.64c0,2.29-1.14,3.43-3.43,3.43h-6.39c-2.39,0-3.58-1.14-3.58-3.43v-69.33c0-2.28,1.14-3.43,3.43-3.43h5.92c2.18,0,3.37,1.13,3.58,3.38Z"/>
        <path class="cls-2" d="m1958.72,871.18v-7.32c-2.29,3.53-5.2,6.54-8.73,9.04-3.53,2.49-8.47,3.74-14.8,3.74-5.4,0-10.38-1.01-14.95-3.04s-8.52-4.83-11.84-8.42c-3.32-3.58-5.9-7.79-7.71-12.62-1.82-4.83-2.73-10-2.73-15.5s.91-10.67,2.73-15.51c1.81-4.83,4.36-9.03,7.63-12.62,3.27-3.58,7.19-6.41,11.76-8.49,4.57-2.08,9.61-3.12,15.11-3.12,3.22,0,6.02.37,8.42,1.1,2.39.74,4.52,1.71,6.38,2.92,1.87,1.21,3.51,2.6,4.91,4.18,1.4,1.58,2.67,3.21,3.82,4.89l.62-7.89c.1-1.26.41-2.23.94-2.92.52-.68,1.45-1.03,2.81-1.03h4.52c1.14,0,2.11.34,2.88,1.02.78.68,1.17,1.64,1.17,2.88v69.18c0,1.04-.39,1.87-1.17,2.49-.78.63-1.74.94-2.88.94h-4.98c-2.6,0-3.89-1.3-3.89-3.89Zm-47.83-34.04c0,3.63.57,7.05,1.71,10.25,1.14,3.21,2.78,6.03,4.91,8.47,2.12,2.43,4.7,4.35,7.71,5.75,3.01,1.39,6.34,2.09,9.97,2.09s7.07-.67,9.97-2.01c2.9-1.35,5.37-3.19,7.4-5.52,2.03-2.33,3.55-5.1,4.59-8.31,1.03-3.21,1.56-6.68,1.56-10.41s-.52-7.07-1.56-10.33c-1.04-3.26-2.54-6.11-4.52-8.54-1.98-2.43-4.42-4.37-7.33-5.82-2.91-1.45-6.28-2.17-10.13-2.17s-7.11.7-10.13,2.09c-3.01,1.4-5.56,3.32-7.63,5.75-2.08,2.43-3.69,5.25-4.83,8.47-1.14,3.21-1.71,6.63-1.71,10.25Z"/>
        <path class="cls-2" d="m2001.12,801.96l.78,5.69c1.35-2.36,3.43-4.67,6.23-6.93,2.81-2.26,6.6-3.38,11.37-3.38,1.76,0,3.51.26,5.22.77,1.71.52,3.27,1.11,4.67,1.77,1.4.67,2.54,1.36,3.43,2.08.88.72,1.32,1.33,1.32,1.84,0,.21-.1.62-.31,1.24l-3.89,7.25c-.62,1.04-1.3,1.56-2.03,1.56-.52,0-.91-.1-1.17-.31-.26-.21-.49-.37-.7-.47-1.04-.62-2.34-1.17-3.89-1.64-1.56-.46-3.06-.75-4.52-.85-2.29,0-4.42.62-6.39,1.87-1.97,1.25-3.63,2.84-4.98,4.76-1.35,1.93-2.42,4.11-3.19,6.56-.78,2.45-1.17,4.87-1.17,7.26v40.61c0,2.29-1.14,3.43-3.43,3.43h-6.39c-2.39,0-3.58-1.14-3.58-3.43v-69.64c0-1.04.33-1.87,1.01-2.5.68-.62,1.48-.94,2.42-.94h5.6c1.14,0,2,.33,2.57,1,.57.66.91,1.46,1.01,2.38Z"/>
        <path class="cls-2" d="m2071.81,876.32c-.41,0-.8.02-1.17.08-.37.05-.8.07-1.32.07-2.5,0-4.92-.18-7.28-.54-2.36-.37-4.42-1.19-6.21-2.5-1.78-1.3-3.23-3.19-4.33-5.68-1.1-2.5-1.65-5.82-1.65-9.97v-46.74h-9.35c-1.25,0-2.21-.23-2.88-.7s-1.01-1.38-1.01-2.73v-5.76c0-1.35.33-2.23,1.01-2.65s1.64-.63,2.88-.63h9.35v-21.96c0-1.66.89-2.7,2.68-3.12l8.03-1.09c1.27,0,2.08.41,2.45,1.24.37.83.55,1.77.55,2.81v22.12h11.53c2.28,0,3.43,1.2,3.43,3.58v5.14c0,2.5-1.14,3.74-3.43,3.74h-11.53v41.75c0,2.6.13,4.63.39,6.08.26,1.45.73,2.54,1.41,3.27.68.73,1.53,1.17,2.57,1.33,1.04.15,2.34.23,3.89.23,2.6,0,3.89,1.3,3.89,3.89v4.98c0,2.29-1.3,3.53-3.89,3.74Z"/>
        <path class="cls-2" d="m2144.4,762.91v108.75c0,2.28-1.14,3.43-3.43,3.43h-6.54c-2.29,0-3.43-1.14-3.43-3.43v-108.75c0-2.28,1.14-3.43,3.43-3.43h6.54c2.28,0,3.43,1.14,3.43,3.43Z"/>
        <path class="cls-2" d="m2156.23,837.07c0-5.51,1.04-10.7,3.12-15.58,2.08-4.88,4.91-9.14,8.5-12.78,3.58-3.63,7.81-6.49,12.69-8.57,4.88-2.08,10.07-3.12,15.58-3.12s10.7,1.04,15.58,3.12c4.88,2.08,9.14,4.94,12.77,8.57,3.63,3.64,6.49,7.9,8.57,12.78,2.08,4.88,3.12,10.07,3.12,15.58s-1.04,10.7-3.12,15.58c-2.08,4.88-4.94,9.11-8.57,12.69-3.63,3.58-7.89,6.41-12.77,8.49-4.88,2.08-10.08,3.12-15.58,3.12s-10.7-1.04-15.58-3.12c-4.88-2.08-9.12-4.91-12.69-8.49-3.58-3.58-6.41-7.81-8.5-12.69-2.08-4.88-3.12-10.08-3.12-15.58Zm12.62,0c0,3.74.72,7.27,2.18,10.59,1.45,3.33,3.4,6.23,5.84,8.73,2.44,2.5,5.32,4.47,8.65,5.92,3.32,1.45,6.86,2.18,10.6,2.18s7.27-.72,10.6-2.18c3.32-1.45,6.23-3.43,8.72-5.92,2.5-2.5,4.47-5.4,5.92-8.73,1.45-3.32,2.18-6.85,2.18-10.59s-.73-7.27-2.18-10.6c-1.45-3.32-3.43-6.26-5.92-8.81-2.49-2.54-5.4-4.54-8.72-5.99-3.33-1.45-6.86-2.18-10.6-2.18s-7.27.73-10.6,2.18c-3.32,1.45-6.21,3.45-8.65,5.99-2.44,2.55-4.39,5.48-5.84,8.81-1.45,3.32-2.18,6.85-2.18,10.6Z"/>
        <path class="cls-2" d="m2283.06,864.48c3.12,0,6.28-.65,9.51-1.95,3.21-1.3,6.02-2.98,8.41-5.06.94-.72,1.87-1.09,2.81-1.09.83,0,1.4.31,1.71.94l4.52,6.38c.31.42.47.88.47,1.41,0,.72-.32,1.35-.94,1.87s-1.19.93-1.72,1.25c-3.43,2.39-7.22,4.44-11.37,6.15-4.16,1.71-8.62,2.57-13.4,2.57-5.51,0-10.7-1.04-15.58-3.12s-9.12-4.91-12.69-8.49c-3.58-3.58-6.41-7.81-8.5-12.69-2.08-4.88-3.12-10.08-3.12-15.58s1.04-10.7,3.12-15.58c2.08-4.88,4.91-9.14,8.5-12.78,3.58-3.63,7.81-6.49,12.69-8.57,4.88-2.08,10.07-3.12,15.58-3.12,4.15,0,8.18.63,12.07,1.87,3.89,1.24,7.87,3.32,11.92,6.23,1.66,1.14,2.5,2.18,2.5,3.12,0,.21-.02.49-.08.85-.05.37-.18.65-.39.86l-4.21,6.7v-.16c-.41.63-1.09.94-2.03.94-.62,0-1.45-.41-2.49-1.25-2.39-1.87-5.04-3.45-7.95-4.75-2.91-1.3-6.02-1.95-9.35-1.95-3.74,0-7.27.73-10.6,2.18-3.32,1.45-6.23,3.45-8.72,5.99-2.5,2.55-4.47,5.48-5.92,8.81-1.45,3.32-2.18,6.85-2.18,10.6s.73,7.27,2.18,10.59c1.45,3.33,3.43,6.23,5.92,8.73,2.49,2.5,5.4,4.47,8.72,5.92,3.32,1.45,6.86,2.18,10.6,2.18Z"/>
        <path class="cls-2" d="m2320.09,871.65v-108.75c0-.94.28-1.74.85-2.42.57-.68,1.43-1.01,2.57-1.01h6.38c.94,0,1.76.31,2.5.93.72.63,1.09,1.46,1.09,2.5v66.05l26.95-28.2c.62-.63,1.22-1.14,1.79-1.56.57-.41,1.38-.63,2.42-.63h10.91c1.56,0,2.34.57,2.34,1.72,0,.62-.08,1.06-.23,1.33-.16.26-.49.7-1.02,1.32l-23.83,24.31,35.83,43.62c.93.93,1.4,1.76,1.4,2.49,0,1.14-.88,1.72-2.65,1.72h-10.75c-.72,0-1.48-.21-2.26-.62-.78-.41-1.48-1.04-2.1-1.87l-28.82-35.83-9.97,10.28v24.62c0,2.28-1.19,3.43-3.58,3.43h-6.38c-2.29,0-3.43-1.14-3.43-3.43Z"/>
        <path class="cls-2" d="m2422.48,876.95c-5.09,0-9.87-1.04-14.33-3.12-4.47-2.08-8.36-4.91-11.68-8.49-3.33-3.58-5.95-7.81-7.87-12.69-1.92-4.88-2.88-10.08-2.88-15.58s.96-10.7,2.88-15.58c1.92-4.88,4.54-9.14,7.87-12.78,3.32-3.63,7.22-6.49,11.68-8.57,4.46-2.08,9.24-3.12,14.33-3.12,4.78,0,9.27.96,13.47,2.88,4.21,1.92,7.89,4.55,11.06,7.87,3.16,3.32,5.68,7.22,7.56,11.68,1.87,4.47,2.8,9.24,2.8,14.33v1.87c0,3.12-.99,5.09-2.96,5.92-1.97.83-4.36,1.25-7.17,1.25h-47.83c.94,6.19,3.56,11.21,7.87,15.07,4.31,3.87,9.37,5.8,15.19,5.8,3.12,0,6.26-.57,9.43-1.71,3.16-1.14,5.99-2.75,8.49-4.83.72-.72,1.66-1.09,2.81-1.09.72,0,1.3.31,1.71.93l4.36,6.55c.41.41.63.89.63,1.41-.11.74-.44,1.37-1.02,1.89-.57.53-1.11.95-1.64,1.26-3.53,2.42-7.32,4.5-11.37,6.23-4.05,1.73-8.52,2.6-13.4,2.6Zm-22.43-45.65h44.08c-.52-2.88-1.45-5.62-2.8-8.19-1.35-2.58-3.02-4.82-4.99-6.73-1.97-1.9-4.18-3.4-6.62-4.49-2.44-1.08-4.96-1.62-7.55-1.62s-5.25.55-7.64,1.62c-2.39,1.08-4.54,2.58-6.46,4.49-1.92,1.91-3.58,4.15-4.98,6.73-1.41,2.57-2.42,5.31-3.04,8.19Z"/>
        <path class="cls-2" d="m2480.24,801.96l.78,5.69c1.35-2.36,3.43-4.67,6.23-6.93,2.81-2.26,6.6-3.38,11.37-3.38,1.76,0,3.51.26,5.22.77,1.71.52,3.27,1.11,4.67,1.77,1.4.67,2.54,1.36,3.43,2.08.88.72,1.32,1.33,1.32,1.84,0,.21-.1.62-.31,1.24l-3.89,7.25c-.62,1.04-1.3,1.56-2.03,1.56-.52,0-.91-.1-1.17-.31-.26-.21-.49-.37-.7-.47-1.04-.62-2.34-1.17-3.89-1.64-1.56-.46-3.06-.75-4.52-.85-2.29,0-4.42.62-6.39,1.87-1.97,1.25-3.63,2.84-4.98,4.76-1.35,1.93-2.42,4.11-3.19,6.56s-1.17,4.87-1.17,7.26v40.61c0,2.29-1.14,3.43-3.43,3.43h-6.39c-2.39,0-3.58-1.14-3.58-3.43v-69.64c0-1.04.33-1.87,1.01-2.5.68-.62,1.48-.94,2.42-.94h5.6c1.14,0,2,.33,2.57,1,.57.66.91,1.46,1.01,2.38Z"/>
        <path class="cls-2" d="m2514.16,859.5c-.21-.52-.29-1.11-.23-1.79.05-.68.39-1.12,1.01-1.33l7.79-3.12c.83-.41,1.58-.33,2.26.23.67.57,1.11,1.28,1.32,2.11.63,1.56,1.5,2.88,2.65,3.97,1.14,1.09,2.42,1.97,3.82,2.65,1.4.68,2.8,1.17,4.21,1.48,1.4.31,2.62.47,3.66.47,1.76,0,3.51-.23,5.22-.7,1.72-.47,3.27-1.14,4.67-2.03,1.4-.88,2.54-1.95,3.43-3.19s1.33-2.65,1.33-4.21c0-1.76-.44-3.27-1.33-4.52-.88-1.25-2.05-2.34-3.51-3.27s-3.14-1.74-5.06-2.42c-1.92-.68-3.97-1.32-6.15-1.95-6.85-1.76-12.36-4.57-16.52-8.41-4.15-3.84-6.23-8.78-6.23-14.8,0-3.22.6-6.18,1.8-8.88,1.19-2.7,2.88-5.01,5.06-6.94,2.18-1.92,4.8-3.43,7.87-4.52,3.06-1.09,6.46-1.64,10.2-1.64,5.82,0,10.52,1.35,14.1,4.05,3.58,2.7,6.72,6.38,9.43,11.06.21.42.37.86.47,1.33s-.1.91-.63,1.33l-6.38,4.52c-.83.62-1.56.6-2.18-.08-.62-.68-1.3-1.48-2.02-2.42-1.46-2.08-3.23-3.86-5.3-5.37-2.08-1.5-4.52-2.26-7.32-2.26-3.74,0-6.78,1.01-9.12,3.04s-3.51,4.28-3.51,6.78c0,1.56.39,2.93,1.17,4.13.78,1.2,1.8,2.21,3.04,3.04,1.24.83,2.62,1.51,4.13,2.03,1.5.52,2.98.99,4.44,1.41,8.31,2.08,14.82,5.17,19.55,9.27,4.73,4.1,7.09,9.27,7.09,15.5,0,3.43-.7,6.54-2.1,9.35-1.41,2.81-3.33,5.17-5.77,7.09-2.44,1.92-5.35,3.4-8.72,4.44-3.38,1.04-7.09,1.56-11.14,1.56-2.8,0-5.6-.37-8.41-1.09-2.81-.72-5.43-1.79-7.87-3.19-2.44-1.4-4.55-3.16-6.31-5.29-1.76-2.13-3.06-4.59-3.89-7.4Z"/>
      </g>
      <g>
        <g>
          <path class="cls-2" d="m369.7,3.67c-12.15,7.07-24.3,14.15-36.45,21.22-29.05,16.91-58.09,33.83-87.14,50.74-34.73,20.22-69.45,40.44-104.18,60.66-29.57,17.22-59.14,34.44-88.71,51.66-13.18,7.68-26.63,15.03-39.61,23.06C4.73,216.52.12,225.78.01,236.03c-.02,2.18,0,4.36,0,6.54v123.47c0,40.14,0,80.28,0,120.42,0,35.98,0,71.97,0,107.95v61.34c0,9.44,5.16,18.95,13.52,23.57,95.39,52.79,190.78,105.57,286.16,158.36,26.63,14.74,53.26,29.48,79.89,44.21,12.49,6.91,30.35,3.45,37.35-9.79s3.55-29.96-9.79-37.35c-95.39-52.79-190.78-105.57-286.16-158.36-26.63-14.74-53.26-29.48-79.89-44.21l13.52,23.57c0-14.04,0-28.07,0-42.11,0-33.42,0-66.83,0-100.25,0-40.68,0-81.35,0-122.03,0-34.93,0-69.86,0-104.79,0-17.06.44-34.19,0-51.24,0-.23,0-.46,0-.7l-13.52,23.57c11.85-6.9,23.69-13.8,35.54-20.69,28.32-16.49,56.64-32.98,84.96-49.47,34.36-20.01,68.73-40.02,103.09-60.03,29.6-17.23,59.19-34.47,88.79-51.7,14.38-8.38,28.96-16.5,43.18-25.14.2-.12.41-.24.62-.36,12.34-7.19,17.77-24.97,9.79-37.35s-24.14-17.48-37.35-9.79h0Z"/>
          <path class="cls-2" d="m401.87,450.4c11.81-6.88,23.62-13.75,35.43-20.63,28.36-16.52,56.72-33.03,85.09-49.55,34.31-19.98,68.62-39.96,102.93-59.94,29.65-17.27,59.31-34.53,88.96-51.8,14.38-8.38,28.94-16.51,43.17-25.14.2-.12.4-.23.59-.35-13.69-7.86-27.38-15.71-41.07-23.57,0,14.24,0,28.49,0,42.73,0,34.2,0,68.41,0,102.61v124.13c0,35.76,0,71.52,0,107.28,0,17.35-.29,34.73,0,52.08,0,.24,0,.48,0,.72l13.52-23.57c-45.69,27.26-91.38,54.52-137.07,81.78-45.51,27.15-91.01,54.3-136.52,81.45-25.77,15.37-51.54,30.75-77.31,46.12-5.93,3.54-10.71,9.64-12.54,16.31s-.99,15.23,2.75,21.03c7.95,12.34,24.22,17.62,37.35,9.79,47.52-28.35,95.04-56.7,142.55-85.05,47.7-28.46,95.4-56.92,143.1-85.38,11.88-7.09,23.76-14.18,35.64-21.26,5.85-3.49,11.7-6.98,17.54-10.47,2.92-1.74,5.85-3.49,8.77-5.23s6.41-3.61,8.81-6.23c4.96-5.4,7.71-11.96,7.99-19.3.07-1.78,0-3.57,0-5.35,0-12.39,0-24.78,0-37.18v-63.57c0-26.14,0-52.28,0-78.43s0-54.97,0-82.45c0-25.15,0-50.31,0-75.46,0-19.15,0-38.29,0-57.44,0-9.46.06-18.93,0-28.39,0-.42,0-.85,0-1.27,0-20.72-23.18-33.99-41.07-23.57-11.81,6.88-23.62,13.75-35.43,20.63-28.36,16.52-56.72,33.03-85.09,49.55-34.31,19.98-68.62,39.96-102.93,59.94-29.65,17.27-59.31,34.53-88.96,51.8-14.39,8.38-28.9,16.57-43.17,25.14-.2.12-.4.23-.59.35-5.92,3.45-10.73,9.71-12.54,16.31s-.99,15.23,2.75,21.03c8.02,12.44,24.14,17.48,37.35,9.79h0Z"/>
          <path class="cls-2" d="m369.7,50.81c3.22,1.71,6.43,3.43,9.65,5.14,8.75,4.66,17.51,9.33,26.26,13.99,12.95,6.9,25.89,13.79,38.84,20.69,15.79,8.41,31.59,16.83,47.38,25.24,17.3,9.22,34.6,18.43,51.9,27.65,17.46,9.3,34.92,18.6,52.39,27.91,16.28,8.67,32.56,17.35,48.84,26.02,13.75,7.33,27.51,14.65,41.26,21.98,9.89,5.27,19.77,10.53,29.66,15.8,4.67,2.49,9.34,4.99,14.02,7.47.2.1.39.21.59.31,6.41,3.41,13.93,4.71,21.03,2.75,3.55-.84,6.65-2.47,9.28-4.89,2.97-1.92,5.32-4.48,7.03-7.66,3.35-6.33,5.02-14.01,2.75-21.03-2.14-6.62-6.23-12.95-12.54-16.31-3.22-1.71-6.43-3.43-9.65-5.14-8.75-4.66-17.51-9.33-26.26-13.99-12.95-6.9-25.89-13.79-38.84-20.69-15.79-8.41-31.59-16.83-47.38-25.24-17.3-9.22-34.6-18.43-51.9-27.65s-34.92-18.6-52.39-27.91c-16.28-8.67-32.56-17.35-48.84-26.02-13.75-7.33-27.51-14.65-41.26-21.98-9.89-5.27-19.77-10.53-29.66-15.8-4.67-2.49-9.34-4.99-14.02-7.47-.2-.1-.39-.21-.59-.31-6.41-3.41-13.93-4.71-21.03-2.75-3.55.84-6.65,2.47-9.28,4.89-2.97,1.92-5.32,4.48-7.03,7.66-3.35,6.33-5.02,14.01-2.75,21.03,2.14,6.62,6.23,12.95,12.54,16.31h0Z"/>
        </g>
        <path class="cls-2" d="m420.66,858.32c0-2.33,0-4.66,0-6.99,0-6.28,0-12.56,0-18.85s0-18.63,0-27.94c0-11.36,0-22.73,0-34.09v-37.21c0-12.6,0-25.21,0-37.81s0-23.34,0-35.02v-29.7c0-7.12,0-14.23,0-21.35,0-3.36.01-6.73,0-10.09,0-.15,0-.29,0-.44.14-3.76-.64-7.26-2.35-10.52-1.1-3.38-2.98-6.31-5.64-8.78-2.47-2.66-5.4-4.54-8.78-5.64-3.25-1.71-6.76-2.49-10.52-2.35l-7.26.98c-4.62,1.3-8.64,3.64-12.05,7.02l-4.27,5.52c-2.47,4.26-3.71,8.85-3.73,13.78,0,2.33,0,4.66,0,6.99,0,6.28,0,12.56,0,18.85,0,9.31,0,18.63,0,27.94v71.3c0,12.6,0,25.21,0,37.81s0,23.34,0,35.02c0,9.9,0,19.8,0,29.7v21.35c0,3.36-.01,6.73,0,10.09,0,.15,0,.29,0,.44-.14,3.76.64,7.26,2.35,10.52,1.1,3.38,2.98,6.31,5.64,8.78,2.47,2.66,5.4,4.54,8.78,5.64,3.25,1.71,6.76,2.49,10.52,2.35l7.26-.98c4.62-1.3,8.64-3.64,12.05-7.02l4.27-5.52c2.47-4.26,3.71-8.85,3.73-13.78h0Z"/>
      </g>
    </g>
  </g>
</svg>