<?xml version="1.0" encoding="utf-8"?>
<!-- Generator: Adobe Illustrator 26.0.2, SVG Export Plug-In . SVG Version: 6.00 Build 0)  -->
<svg version="1.1" id="Capa_1" xmlns="http://www.w3.org/2000/svg" xmlns:xlink="http://www.w3.org/1999/xlink" x="0px" y="0px"
	 viewBox="0 0 1643.1 527.1" style="enable-background:new 0 0 1643.1 527.1;" xml:space="preserve">
<style type="text/css">
	.st0{fill:#FFB71B;}
	.st1{fill:#FFFFFF;}
</style>
<path class="st0" d="M240.2,174.8c9.9,0,18.1-5.2,19.2-11.8l9.8-110.7c0-10.9-12.8-19.9-28.9-19.9s-28.9,9-28.9,19.9l9.8,110.7
	C222.2,169.7,230.3,174.8,240.2,174.8L240.2,174.8z"/>
<path class="st0" d="M180.3,209.4c5-8.6,4.6-18.2-0.6-22.5l-91-63.8c-9.5-5.5-23.6,1.1-31.7,15.1s-6.6,29.5,2.8,35L160.5,220
	C166.8,222.4,175.4,217.9,180.3,209.4L180.3,209.4z"/>
<path class="st0" d="M300,209.4c5,8.6,13.5,13.1,19.8,10.7l100.8-46.9c9.5-5.5,10.8-21,2.8-35s-22.3-20.5-31.7-15.1l-91,63.8
	C295.5,191.2,295.1,200.8,300,209.4L300,209.4z"/>
<path class="st0" d="M240.2,313.1c9.9,0,18.1,5.1,19.2,11.8l9.8,110.7c0,11-12.8,19.9-28.9,19.9s-28.9-9-28.9-19.9l9.8-110.7
	C222.2,318.2,230.3,313.1,240.2,313.1L240.2,313.1z"/>
<path class="st0" d="M300,278.5c5-8.6,13.5-13,19.8-10.7l100.8,46.8c9.5,5.5,10.8,21.1,2.8,35s-22.3,20.5-31.7,15.1l-91-63.8
	C295.5,296.7,295.1,287,300,278.5L300,278.5z"/>
<path class="st0" d="M180.3,278.5c5,8.6,4.6,18.2-0.6,22.5l-91,63.8c-9.5,5.5-23.6-1.2-31.7-15.1s-6.6-29.5,2.8-35l100.7-46.8
	C166.8,265.5,175.4,269.9,180.3,278.5L180.3,278.5z"/>
<path class="st0" d="M456.1,342.2c9,0,16.2,7.3,16.2,16.3c0,9-7.3,16.2-16.3,16.2c-9,0-16.2-7.3-16.2-16.3
	C439.8,349.5,447.1,342.2,456.1,342.2L456.1,342.2z M455.9,345c-7,0.1-12.6,5.8-12.6,12.8c0,0.1,0,0.1,0,0.2
	c0,7.3,5.5,13.1,12.8,13.1c7.1,0.1,12.4-5.7,12.4-13S463.2,345,455.9,345L455.9,345z M453.1,366.7H450v-16.6
	c1.9-0.3,3.8-0.5,5.8-0.5c2.8,0,4.2,0.5,5.2,1.3c1.1,0.8,1.7,2.1,1.7,3.4c0,2.1-1.5,3.4-3.3,4v0.2c1.5,0.6,2.3,1.9,2.8,4
	c0.5,2.6,0.8,3.6,1.2,4.2h-3.2c-0.5-0.6-0.9-2.1-1.3-4.4c-0.4-1.8-1.5-2.6-3.9-2.6h-2L453.1,366.7z M453.1,357.4h2.1
	c2.3,0,4.3-0.7,4.3-2.7c0-1.6-1-2.7-4-2.7c-0.8,0-1.6,0.1-2.4,0.2L453.1,357.4z"/>
<path class="st1" d="M551.7,145.7c16.7-2.8,40.2-5,73.3-5c33.4,0,57.3,6.4,73.3,19.2c15.3,12.1,25.6,32,25.6,55.5s-7.8,43.4-22.1,57
	c-18.5,17.4-45.9,25.3-77.9,25.3c-6.2,0.1-12.4-0.3-18.5-1.1v85.8h-53.8V145.7z M605.5,254.6c4.6,1.1,10.3,1.4,18.2,1.4
	c28.8,0,46.6-14.6,46.6-39.2c0-22.1-15.3-35.2-42.4-35.2c-11,0-18.5,1.1-22.4,2.1V254.6z"/>
<path class="st1" d="M809.4,159.9c0,15-11.4,27-29.2,27c-17.1,0-28.5-12.1-28.1-27c-0.4-15.7,11-27.4,28.5-27.4
	S809.1,144.2,809.4,159.9z M753.6,382.4V208.3h54.1v174.1H753.6z"/>
<path class="st1" d="M981.7,378.1c-9.6,4.3-27.8,8.2-48.4,8.2c-56.2,0-92.2-34.5-92.2-89.3c0-50.9,34.9-92.5,99.7-92.5
	c14.2,0,29.9,2.5,41.3,6.8l-8.5,40.2c-6.4-2.8-16-5.3-30.3-5.3c-28.5,0-47,20.3-46.6,48.8c0,32,21.4,48.8,47.7,48.8
	c12.8,0,22.8-2.1,31-5.7L981.7,378.1z"/>
<path class="st1" d="M1065.7,281.6h0.7c3.9-7.1,8.2-14.2,12.5-21l35.2-52.3h65.1l-62.3,70.5l71.2,103.6h-66.5l-42-71.5l-13.9,17.1
	v54.5h-54.1V129.6h54.1V281.6z"/>
<path class="st1" d="M1368.6,326.5c0,22.8,0.7,41.3,1.4,55.9h-47l-2.4-24.6h-1.1c-6.8,10.7-23.1,28.5-54.5,28.5
	c-35.2,0-61.2-22.1-61.2-75.8V208.3h54.5v93.6c0,25.3,8.2,40.6,27,40.6c15,0,23.5-10.3,27-18.9c1.4-3.2,1.8-7.5,1.8-11.8V208.3h54.5
	V326.5z"/>
<path class="st1" d="M1412,266.7c0-22.8-0.7-42.4-1.4-58.4h47l2.5,24.2h0.7c12.8-18.5,32.7-28.1,58-28.1c38.1,0,72.3,33.1,72.3,88.6
	c0,63.3-40.2,93.2-79,93.2c-21,0-37.4-8.5-45.2-19.9h-0.7v86.5h-54.1L1412,266.7z M1466.1,307.6c-0.1,3.8,0.3,7.6,1.1,11.4
	c3.6,14.6,16,25.6,31.7,25.6c23.5,0,37.4-19.6,37.4-49.1c0-27.8-12.4-48.8-36.7-48.8c-15.3,0-28.8,11.4-32.4,27.4
	c-0.7,3.2-1.1,6.4-1.1,9.6V307.6z"/>
</svg>
