<svg id="a" height="512" viewBox="0 0 64 64" width="512" xmlns="http://www.w3.org/2000/svg" fill="currentColor">
    <path d="m15 32h8v2h-8z" />
    <path d="m15 36h8v2h-8z" />
    <path d="m15 40h8v2h-8z" />
    <rect height="6" rx="1" width="8" x="29" y="22" />
    <rect height="6" rx="1" width="8" x="41" y="22" />
    <rect height="6" rx="1" width="8" x="29" y="30" />
    <rect height="6" rx="1" width="8" x="41" y="30" />
    <path
        d="m63 40c0-1.14-1.15-8-4-8s-4 6.86-4 8c0 1.86 1.28 3.41 3 3.86v6.14h-5v-31c0-.55-.45-1-1-1h-3v-5c0-.55-.45-1-1-1h-18c-.55 0-1 .45-1 1v5h-3c-.55 0-1 .45-1 1v3.34l-2 .86v-4.2c0-.55-.45-1-1-1h-8c-.55 0-1 .45-1 1v8.48l-1.39.6c-.37.16-.61.52-.61.92v21h-5v-6.14c1.72-.45 3-2 3-3.86 0-1.14-1.15-8-4-8s-4 6.86-4 8c0 1.86 1.28 3.41 3 3.86v6.14h-3v2h62v-2h-3v-6.14c1.72-.45 3-2 3-3.86zm-38 10h-3v-5c0-.55-.45-1-1-1h-4c-.55 0-1 .45-1 1v5h-3v-20.34l12-5.14zm26 0h-7v-9c0-.55-.45-1-1-1h-8c-.55 0-1 .45-1 1v9h-7v-30h24z" />
</svg>