<svg clip-rule="evenodd" fill-rule="evenodd" height="512" image-rendering="optimizeQuality" shape-rendering="geometricPrecision" text-rendering="geometricPrecision" viewBox="0 0 512 512" width="512" xmlns="http://www.w3.org/2000/svg"><g id="Layer_x0020_1"><path d="m41 183 8-73c1-6 6-10 12-10h60c6 0 11 4 12 10l8 73z" fill="#c75c5c"/><path d="m31 262 10-79h100l6 47-112 31c-2 0-3 1-4 1z" fill="#dedfcf"/><path d="m220 127 9-73c1-6 6-10 12-10h60c6 0 11 4 11 10l9 73z" fill="#c75c5c"/><path d="m211 205 9-78h101l6 47z" fill="#dedfcf"/><path d="m31 414v-152c0-5 4-10 9-11l426-114c3-1 7-1 10 2 3 2 5 5 5 9v266c-265 0-311 0-450 0z" fill="#f3a766"/><path d="m95 422v-79c0-27 22-50 50-50s50 23 50 50v79z" fill="#b5493b"/><path d="m103 414v-71c0-23 19-42 42-42s42 19 42 42v71z" fill="#df5a49"/><path d="m311 305h-47c-8 0-14-6-14-14v-49c0-7 6-14 14-14h47c8 0 14 7 14 14v49c0 8-6 14-14 14zm87 0h-48c-7 0-14-6-14-14v-49c0-7 7-14 14-14h48c8 0 14 7 14 14v49c0 8-6 14-14 14zm-87 79h-47c-8 0-14-6-14-14v-48c0-8 6-14 14-14h47c8 0 14 6 14 14v48c0 8-6 14-14 14zm87 0h-48c-7 0-14-6-14-14v-48c0-8 7-14 14-14h48c8 0 14 6 14 14v48c0 8-6 14-14 14z" fill="#df5a49"/><g id="_503141496" fill="#d9f2f2"><path d="m311 297c4 0 6-3 6-6v-49c0-3-2-6-6-6h-47c-3 0-6 3-6 6v49c0 3 3 6 6 6z"/><path d="m398 297c3 0 6-3 6-6v-49c0-3-3-6-6-6h-48c-3 0-6 3-6 6v49c0 3 3 6 6 6z"/><path d="m311 376c4 0 6-2 6-6v-48c0-4-2-6-6-6h-47c-3 0-6 2-6 6v48c0 4 3 6 6 6z"/><path d="m398 376c3 0 6-2 6-6v-48c0-4-3-6-6-6h-48c-3 0-6 2-6 6v48c0 4 3 6 6 6z"/></g><path d="m481 468h-450c-17 0-31-14-31-31s14-31 31-31h450c17 0 31 14 31 31s-14 31-31 31z" fill="#8b000b"/></g></svg>