<svg id="Layer_5" enable-background="new 0 0 64 64" height="512" viewBox="0 0 64 64" width="512" fill="currentColor"
    xmlns="http://www.w3.org/2000/svg">
    <g>
        <path
            d="m63 41v-18h-10v-2h3c1.654 0 3-1.346 3-3s-1.346-3-3-3h-3.184c-.414-1.161-1.514-2-2.816-2h-2c-1.302 0-2.402.839-2.816 2h-15.184c-1.654 0-3 1.346-3 3v1h-3c-2.757 0-5 2.243-5 5v3h-9c-1.302 0-2.402.839-2.816 2h-6.184v6h6.184c.414 1.161 1.514 2 2.816 2h9v3c0 2.757 2.243 5 5 5h3v1c0 1.654 1.346 3 3 3h15.184c.414 1.161 1.514 2 2.816 2h2c1.302 0 2.402-.839 2.816-2h3.184c1.654 0 3-1.346 3-3s-1.346-3-3-3h-3v-2zm-60-10h4v2h-4zm14 4v-2h-2v2h-5c-.552 0-1-.449-1-1v-4c0-.551.448-1 1-1h1v2h2v-2h6v6zm44-10v14h-8v-2h5v-2h-5v-2h5v-2h-5v-2h5v-2h-5v-2zm-4-7c0 .551-.448 1-1 1h-3v-2h3c.552 0 1 .449 1 1zm-28 0c0-.551.448-1 1-1h15v2h-16zm-8 22v-16c0-1.654 1.346-3 3-3h21v4h-8v14h8v4h-21c-1.654 0-3-1.346-3-3zm24-13v10h-6v-10zm-16 19v-1h16v2h-15c-.552 0-1-.449-1-1zm22 2c0 .551-.448 1-1 1h-2c-.552 0-1-.449-1-1v-32c0-.551.448-1 1-1h2c.552 0 1 .449 1 1zm5-3c.552 0 1 .449 1 1s-.448 1-1 1h-3v-2z" />
        <path d="m41 29h2v2h-2z" />
        <path d="m41 33h2v2h-2z" />
        <path d="m31 25h2v14h-2z" />
        <path d="m27 25h2v14h-2z" />
        <path d="m23 25h2v14h-2z" />
    </g>
</svg>