<svg width="391" height="229" viewBox="0 0 391 229" fill="none" xmlns="http://www.w3.org/2000/svg">
<rect width="391" height="229" rx="20" fill="#BEE0F1"/>
<rect x="26" y="134" width="157" height="9" fill="#5681A3"/>
<rect x="26" y="153" width="339" height="9" fill="#5681A3"/>
<rect x="26" y="172" width="339" height="9" fill="#5681A3"/>
<rect x="26" y="191" width="339" height="9" fill="#5681A3"/>
<g clip-path="url(#clip0_131_5)">
<path d="M50.8799 28H26V52.9508H50.8799V28ZM47.4231 49.4842H29.4567V31.4666H47.4231V49.4842Z" fill="#2D485D"/>
<path d="M43.8384 35.0615H33.0415V45.8892H43.8384V35.0615Z" fill="#2D485D"/>
<path d="M76.1201 28V52.9508H101V28H76.1201ZM97.5433 49.4842H79.5769V31.4666H97.5433V49.4842Z" fill="#2D485D"/>
<path d="M93.9585 35.0615H83.1616V45.8892H93.9585V35.0615Z" fill="#2D485D"/>
<path d="M26 102.894H50.8799V77.9434H26V102.894ZM29.4567 81.41H47.4231V99.4276H29.4567V81.41Z" fill="#2D485D"/>
<path d="M43.8384 85.0044H33.0415V95.8321H43.8384V85.0044Z" fill="#2D485D"/>
<path d="M33.0415 56.5068H26V60.0902H33.0415V56.5068Z" fill="#2D485D"/>
<path d="M47.3591 60.2612H50.9491V63.6919H43.8384V64.1823V67.2759V70.8483V74.4317V74.4335H47.3591V74.4317H54.5713V70.8483H47.3591V67.2759H54.5713V70.8466H58.092V67.2759V64.1823V63.6919H54.4698V56.665H50.9491V56.6772H47.3591V60.2612Z" fill="#2D485D"/>
<path d="M68.5689 67.2749V70.8589H65.0482V74.4313H61.5274V78.017H58.092V81.5779H54.5713V74.433L58.092 74.4313V70.8479H61.6128V67.2749H68.5689Z" fill="#2D485D"/>
<path d="M75.8382 85.0047V81.578V81.4208V77.9946H72.3174V81.4208H61.6128V85.0047H65.0909V88.8015H61.6128V85.0047H58.0921V88.7275H54.4831V92.3115H58.0921V95.8324H54.4831V102.894H58.0921H61.4392H61.6128V95.8324H65.0909V92.2433H68.6116V85.0047H75.8382Z" fill="#2D485D"/>
<path d="M72.1324 95.8323V99.4158H82.8583V103H93.6823V99.4158H86.3577V95.8323V92.2432H82.837V95.8323H72.1324Z" fill="#2D485D"/>
<path d="M72.1323 99.416H65.1335V102.999H72.1323V99.416Z" fill="#2D485D"/>
<path d="M75.9073 63.6919H68.5689V67.2753H75.9073V63.6919Z" fill="#2D485D"/>
<path d="M96.9384 67.2783V70.8149H100.445V74.4046H96.924V70.8149H93.4032V74.4046H89.8825V70.8149H86.386V63.6943L93.3634 63.688V60.204H89.7556V56.6206H96.8848V60.204H96.8842V63.6943H100.551V67.2783H96.9384Z" fill="#2D485D"/>
<path d="M65.0482 74.4335V78.0169H68.5689V74.4434H72.0896V70.8594H68.5689V74.4335H65.0482Z" fill="#2D485D"/>
<path d="M72.1323 92.2432H68.6116V95.8324H72.1323V92.2432Z" fill="#2D485D"/>
<path d="M93.4027 92.2397H89.882V95.8289H93.4027V92.2397Z" fill="#2D485D"/>
<path d="M79.3653 70.8594H75.8445V74.4428H79.3653V70.8594Z" fill="#2D485D"/>
<path d="M75.9073 63.6919H79.4281V60.2085H86.5359V56.6245H75.9073V60.2085V63.6919Z" fill="#2D485D"/>
<path d="M29.5207 63.6772H26V74.4338H29.5207V63.6772Z" fill="#2D485D"/>
<path d="M57.9732 56.6771H58.092V63.6918H61.6128V60.0014H65.1335V56.6771H70.3714V56.6649H72.3364V42.3036H68.8157V46.0269H65.1335V49.5577H68.8157V53.1463H65.1335V49.5577H61.6128V53.1463H57.9905V42.3614H61.5113V28H57.9905V31.5903H54.4698V38.771H57.9905V42.3036H54.4698V56.6649H57.9732V56.6771Z" fill="#2D485D"/>
<path d="M96.924 81.5385V85.2855H93.4032V81.5385H89.8808V74.4052H86.3842V70.8154H82.8635V74.4434H79.3652V85.0051H75.8382V88.5891H79.0331V92.2442H82.837V88.5891H86.3577V84.9964L86.36 85.001H89.8808V84.986L89.8825 85.001V88.585H93.4032V92.2401H96.924V99.378H100.445V81.5391H96.924V81.5385ZM86.3577 81.4165H82.886V77.9713H86.36L86.3577 81.4165Z" fill="#2D485D"/>
<path d="M96.9234 74.4053H93.4027V81.5385H96.9234V74.4053Z" fill="#2D485D"/>
<path d="M89.8825 88.584H86.36V92.2391H89.8825V88.584Z" fill="#2D485D"/>
<path d="M72.3088 31.5308V28H68.8157H66.1259H65.1335V35.242H68.8157V31.5308H72.3088Z" fill="#2D485D"/>
<path d="M68.8157 38.7725H65.1335V42.3032H68.8157V38.7725Z" fill="#2D485D"/>
<path d="M72.4979 35.2422H68.8157V38.773H72.4979V35.2422Z" fill="#2D485D"/>
<path d="M40.083 70.8462H36.5622V74.4331H40.083V70.8462Z" fill="#2D485D"/>
<path d="M40.083 67.4333V56.6768H36.5622V60.0902H33.0415V70.8462H36.5622V67.4333H40.083Z" fill="#2D485D"/>
</g>
<defs>
<clipPath id="clip0_131_5">
<rect width="75" height="75" fill="white" transform="translate(26 28)"/>
</clipPath>
</defs>
</svg>
