<svg width="44" height="44" viewBox="0 0 44 44" fill="none" xmlns="http://www.w3.org/2000/svg">
<g clip-path="url(#clip0_119_151)">
<path d="M27.4999 14.6668V11.0002C27.4999 10.0277 27.1136 9.09507 26.426 8.40744C25.7383 7.7198 24.8057 7.3335 23.8333 7.3335H10.9999C10.0275 7.3335 9.09483 7.7198 8.40719 8.40744C7.71956 9.09507 7.33325 10.0277 7.33325 11.0002V33.0002C7.33325 33.9726 7.71956 34.9053 8.40719 35.5929C9.09483 36.2805 10.0275 36.6668 10.9999 36.6668H23.8333C24.8057 36.6668 25.7383 36.2805 26.426 35.5929C27.1136 34.9053 27.4999 33.9726 27.4999 33.0002V29.3335" stroke="#FFE700" stroke-width="3.66667" stroke-linecap="round" stroke-linejoin="round"/>
<path d="M38.5001 22H14.6667L20.1667 16.5" stroke="#FFE700" stroke-width="3.66667" stroke-linecap="round" stroke-linejoin="round"/>
<path d="M20.1667 27.5L14.6667 22" stroke="#FFE700" stroke-width="3.66667" stroke-linecap="round" stroke-linejoin="round"/>
</g>
<defs>
<clipPath id="clip0_119_151">
<rect width="44" height="44" fill="white"/>
</clipPath>
</defs>
</svg>
