<?xml version="1.0" encoding="utf-8"?>
<!-- Generator: Adobe Illustrator 26.0.2, SVG Export Plug-In . SVG Version: 6.00 Build 0)  -->
<svg version="1.1" id="Capa_1" xmlns="http://www.w3.org/2000/svg" xmlns:xlink="http://www.w3.org/1999/xlink" x="0px" y="0px"
	 viewBox="0 0 439.9 154.7" style="enable-background:new 0 0 439.9 154.7;" xml:space="preserve">
<style type="text/css">
	.st0{fill:#FFB71B;}
	.st1{stroke:#000000;stroke-miterlimit:10;}
</style>
<path class="st0" d="M12,0h415.9c6.6,0,12,5.4,12,12v130.7c0,6.6-5.4,12-12,12H12c-6.6,0-12-5.4-12-12V12C0,5.4,5.4,0,12,0z"/>
<path class="st1" d="M119.8,24.1c11.5,0,19.7,3.6,27.4,10.6c0.9,0.7,1.1,2,0.3,2.9c-0.1,0.1-0.1,0.2-0.2,0.2l-6.9,7.2
	c-0.6,0.8-1.8,0.9-2.6,0.3c-0.1-0.1-0.2-0.2-0.3-0.3c-4.8-4.2-11-6.6-17.5-6.7c-14.5,0-25.3,12.1-25.3,26.4s10.9,26.2,25.4,26.2
	c6.4-0.1,12.5-2.3,17.4-6.5c0.8-0.7,2-0.7,2.8,0l7,7.3c0.8,0.9,0.8,2.2-0.1,3.1c0,0,0,0,0,0c-7.4,7.2-17.3,11.1-27.6,11
	c-22.6,0.4-41.1-17.6-41.5-40.2C77.9,43,95.9,24.5,118.5,24.1C118.9,24.1,119.3,24.1,119.8,24.1L119.8,24.1z"/>
<path class="st1" d="M176.4,71.5c3.4,0,6.8,0.5,10.1,1.5c0.2-6.7-4.3-9.9-9.9-9.9c-4.1,0.1-8.2,0.7-12.1,1.9
	c-1.7,0.6-2.7-0.7-2.9-2.3l-1.1-5.9c-0.5-1.2,0.2-2.6,1.4-3.1c0.1,0,0.2-0.1,0.3-0.1c4.9-1.6,10.1-2.5,15.3-2.6
	c15.2,0,22.4,8.5,22.4,22.8v28.8c0,1.3-1.1,2.4-2.5,2.4c-0.1,0-0.2,0-0.3,0c-4.2,0-6.8-2.3-7.8-5.3c-4.4,4-10.1,6.2-16,6.1
	c-10.4,0-17.7-6.7-17.7-17.9C155.5,78.7,163.1,71.5,176.4,71.5z M176.7,95.4c4.6,0,8.7-3.6,9.4-5.6v-7.7c-2.5-1-5.1-1.5-7.7-1.6
	c-6,0-9.3,2.8-9.3,7.5C169.1,92.4,171.8,95.4,176.7,95.4L176.7,95.4z"/>
<path class="st1" d="M213.8,54.2c0-1.3,1.1-2.4,2.4-2.4c0.1,0,0.2,0,0.3,0c4.9,0,7.6,3.2,8.3,7.1c1.9-2.6,6.7-7.8,14.6-7.8
	c6.2,0,11.4,1.7,9.9,5.1l-3.4,7.7c-0.4,1.1-1.7,1.7-2.9,1.2c-0.1,0-0.1-0.1-0.2-0.1c-1.5-0.7-3.2-1.1-4.9-1c-4.1-0.1-7.9,2-10,5.4
	v32.7c0,1.9-1.2,2.5-3,2.5h-8.7c-1.4,0-2.4-1.1-2.5-2.5L213.8,54.2z"/>
<path class="st1" d="M279.9,130.6c-6.7-0.1-13.3-2.1-18.8-5.9c-0.9-0.7-1.1-2-0.6-3l3.4-7.4c0.6-1,1.9-1.4,3-0.7c0,0,0.1,0,0.1,0.1
	c1.9,1.1,7,4,12.5,4c8,0,12.4-2.7,12.4-12.5v-1.5c-4.1,1.4-8.3,2.1-12.6,2.2c-15.7,0-26-12-26-27.3c0-15.9,10.8-27.5,25.1-27.5
	c6.3,0,12.4,2.7,16.7,7.4c0.6-4,4.2-6.9,8.3-6.7c1.3-0.2,2.5,0.8,2.7,2.1c0,0.1,0,0.2,0,0.3v51.1
	C305.9,122.1,294.1,130.6,279.9,130.6z M291.8,71.3c-1.1-3-4.8-7.3-11.6-7.3c-8.2,0-12.4,7.1-12.4,14.5s4.4,14.4,13,14.4
	c3.8,0,7.6-1,10.9-2.9L291.8,71.3z"/>
<path class="st1" d="M337.7,71.5c3.4,0,6.8,0.5,10.1,1.5c0.2-6.7-4.3-9.9-9.9-9.9c-4.1,0.1-8.2,0.7-12.1,1.9c-1.7,0.6-2.7-0.7-3-2.3
	l-1.1-5.9c-0.5-1.2,0.1-2.6,1.4-3.1c0.1,0,0.2-0.1,0.3-0.1c4.9-1.6,10.1-2.5,15.3-2.6c15.2,0,22.4,8.5,22.4,22.8v28.8
	c0,1.3-1.1,2.4-2.5,2.4c-0.1,0-0.2,0-0.3,0c-4.2,0-6.8-2.3-7.8-5.3c-4.4,4-10.1,6.2-16,6.1c-10.4,0-17.7-6.7-17.7-17.9
	C316.8,78.7,324.4,71.5,337.7,71.5z M338,95.4c4.7,0,8.7-3.6,9.4-5.6v-7.7c-2.4-1-5.1-1.5-7.7-1.6c-6,0-9.3,2.8-9.3,7.5
	C330.4,92.4,333.2,95.4,338,95.4L338,95.4z"/>
</svg>
