<svg id="Line-Expand" enable-background="new 0 0 64 64" height="512" viewBox="0 0 64 64" width="512" fill="currentColor"
    xmlns="http://www.w3.org/2000/svg">
    <path
        d="m61 12h-4v-4c0-.552-.448-1-1-1h-4v-4c0-.552-.448-1-1-1h-46c-.552 0-1 .448-1 1v48c0 .552.448 1 1 1h4v4c0 .552.448 1 1 1h4v4c0 .552.448 1 1 1h46c.552 0 1-.448 1-1v-48c0-.552-.448-1-1-1zm-1 8h-44v-6h44zm-5-8h-40c-.552 0-1 .448-1 1v2h-3v-6h44zm-5-8v3h-40c-.552 0-1 .448-1 1v2h-3v-6zm-44 46v-38h3v38zm5 5v-38h3v38zm5 5v-38h44v38z" />
    <path d="m18 16h2v2h-2z" />
    <path d="m22 16h2v2h-2z" />
    <path d="m26 16h2v2h-2z" />
    <path d="m39 16h19v2h-19z" />
    <path
        d="m38 45c5.514 0 10-4.486 10-10s-4.486-10-10-10-10 4.486-10 10 4.486 10 10 10zm0-18c4.411 0 8 3.589 8 8s-3.589 8-8 8-8-3.589-8-8 3.589-8 8-8z" />
    <path
        d="m34.474 39.851c.161.099.343.149.526.149.153 0 .306-.035.447-.105l8-4c.339-.17.553-.516.553-.895s-.214-.725-.553-.895l-8-4c-.31-.154-.678-.138-.973.044-.294.183-.474.504-.474.851v8c0 .347.18.668.474.851zm1.526-7.233 4.764 2.382-4.764 2.382z" />
    <path
        d="m53 49c-1.858 0-3.411 1.28-3.858 3h-7.284c-.447-1.72-2-3-3.858-3s-3.411 1.28-3.858 3h-7.284c-.447-1.72-2-3-3.858-3-2.206 0-4 1.794-4 4s1.794 4 4 4c1.858 0 3.411-1.28 3.858-3h7.284c.447 1.72 2 3 3.858 3s3.411-1.28 3.858-3h7.284c.447 1.72 2 3 3.858 3 2.206 0 4-1.794 4-4s-1.794-4-4-4zm-30 6c-1.103 0-2-.897-2-2s.897-2 2-2 2 .897 2 2-.897 2-2 2zm15 0c-1.103 0-2-.897-2-2s.897-2 2-2 2 .897 2 2-.897 2-2 2zm15 0c-1.103 0-2-.897-2-2s.897-2 2-2 2 .897 2 2-.897 2-2 2z" />
    <path d="m51 26h7v2h-7z" />
    <path d="m51 30h7v2h-7z" />
    <path d="m51 34h7v2h-7z" />
</svg>