<svg width="68" height="68" viewBox="0 0 68 68" fill="none" xmlns="http://www.w3.org/2000/svg">
<circle cx="34" cy="34" r="34" fill="#343434"/>
<g clip-path="url(#clip0_9_132)">
<path d="M22.3335 42.3333C22.3335 43.2174 22.6847 44.0652 23.3098 44.6904C23.9349 45.3155 24.7828 45.6667 25.6668 45.6667C26.5509 45.6667 27.3987 45.3155 28.0239 44.6904C28.649 44.0652 29.0002 43.2174 29.0002 42.3333C29.0002 41.4493 28.649 40.6014 28.0239 39.9763C27.3987 39.3512 26.5509 39 25.6668 39C24.7828 39 23.9349 39.3512 23.3098 39.9763C22.6847 40.6014 22.3335 41.4493 22.3335 42.3333Z" stroke="#F37400" stroke-width="3.33333" stroke-linecap="round" stroke-linejoin="round"/>
<path d="M39 42.3333C39 43.2174 39.3512 44.0652 39.9763 44.6904C40.6014 45.3155 41.4493 45.6667 42.3333 45.6667C43.2174 45.6667 44.0652 45.3155 44.6904 44.6904C45.3155 44.0652 45.6667 43.2174 45.6667 42.3333C45.6667 41.4493 45.3155 40.6014 44.6904 39.9763C44.0652 39.3512 43.2174 39 42.3333 39C41.4493 39 40.6014 39.3512 39.9763 39.9763C39.3512 40.6014 39 41.4493 39 42.3333Z" stroke="#F37400" stroke-width="3.33333" stroke-linecap="round" stroke-linejoin="round"/>
<path d="M22.3335 42.3333H19.0002V35.6667M17.3335 22.3333H35.6668V42.3333M29.0002 42.3333H39.0002M45.6668 42.3333H49.0002V32.3333M49.0002 32.3333H35.6668M49.0002 32.3333L44.0002 24H35.6668" stroke="#F37400" stroke-width="3.33333" stroke-linecap="round" stroke-linejoin="round"/>
<path d="M19 29H25.6667" stroke="#F37400" stroke-width="3.33333" stroke-linecap="round" stroke-linejoin="round"/>
</g>
<defs>
<clipPath id="clip0_9_132">
<rect width="40" height="40" fill="white" transform="translate(14 14)"/>
</clipPath>
</defs>
</svg>
