<svg id="Booking" enable-background="new 0 0 512 512" height="512" viewBox="0 0 512 512" width="512" fill="currentColor"
    xmlns="http://www.w3.org/2000/svg">
    <g>
        <path
            d="m132.4 109.6v-59.1c0-7.2 5.9-13 13-13h2.2c7.2 0 13 5.8 13 13v59.1c0 7.2-5.8 13-13 13h-2.2c-7.2.1-13-5.8-13-13z" />
        <path
            d="m351.3 109.6v-59.1c0-7.2 5.8-13 13-13h2.2c7.2 0 13 5.8 13 13v59.1c0 7.2-5.9 13-13 13h-2.2c-7.1.1-13-5.8-13-13z" />
        <path
            d="m448.3 105.1v72.6h-384.6v-72.6c0-6.9 5.6-12.5 12.5-12.5h31.2v17.1c0 20.9 17 37.9 37.9 37.9h2.2c20.9 0 37.9-17 37.9-37.9v-17.2h140.8v17.1c0 20.9 17 37.9 37.9 37.9h2.2c20.9 0 37.9-17 37.9-37.9v-17.1h31.2c7.3 0 12.9 5.7 12.9 12.6z" />
        <path
            d="m63.7 202.6v259.4c0 6.9 5.6 12.5 12.5 12.5h359.5c6.9 0 12.5-5.6 12.5-12.5v-259.4zm276.5 37.2h69.1c6.9 0 12.5 5.6 12.5 12.5s-5.6 12.5-12.5 12.5h-69.1c-6.9 0-12.5-5.6-12.5-12.5s5.6-12.5 12.5-12.5zm-168.4 197.5h-69.1c-6.9 0-12.5-5.6-12.5-12.5s5.6-12.5 12.5-12.5h69.1c6.9 0 12.5 5.6 12.5 12.5 0 7-5.6 12.5-12.5 12.5zm0-86.3h-69.1c-6.9 0-12.5-5.6-12.5-12.5s5.6-12.5 12.5-12.5h69.1c6.9 0 12.5 5.6 12.5 12.5s-5.6 12.5-12.5 12.5zm0-86.3h-69.1c-6.9 0-12.5-5.6-12.5-12.5s5.6-12.5 12.5-12.5h69.1c6.9 0 12.5 5.6 12.5 12.5s-5.6 12.5-12.5 12.5zm118.8 172.6h-69.1c-6.9 0-12.5-5.6-12.5-12.5s5.6-12.5 12.5-12.5h69.1c6.9 0 12.5 5.6 12.5 12.5-.1 7-5.6 12.5-12.5 12.5zm0-86.3h-69.1c-6.9 0-12.5-5.6-12.5-12.5s5.6-12.5 12.5-12.5h69.1c6.9 0 12.5 5.6 12.5 12.5-.1 6.9-5.6 12.5-12.5 12.5zm0-86.3h-69.1c-6.9 0-12.5-5.6-12.5-12.5s5.6-12.5 12.5-12.5h69.1c6.9 0 12.5 5.6 12.5 12.5-.1 6.9-5.6 12.5-12.5 12.5zm118.8 172.6h-69.1c-6.9 0-12.5-5.6-12.5-12.5s5.6-12.5 12.5-12.5h69.1c6.9 0 12.5 5.6 12.5 12.5-.1 7-5.7 12.5-12.5 12.5zm9.2-112.3-44.6 44.7c-2.3 2.3-5.5 3.6-8.8 3.6s-6.5-1.3-8.8-3.6l-25.4-25.4c-4.9-4.9-4.9-12.7 0-17.6s12.8-4.9 17.6 0l16.6 16.6 35.9-35.9c4.9-4.9 12.7-4.9 17.6 0 4.8 4.9 4.8 12.8-.1 17.6z" />
    </g>
</svg>