<?xml version="1.0" standalone="no"?>
<!DOCTYPE svg PUBLIC "-//W3C//DTD SVG 20010904//EN" "http://www.w3.org/TR/2001/REC-SVG-20010904/DTD/svg10.dtd">
<svg version="1.0" xmlns="http://www.w3.org/2000/svg" width="400.000000pt" height="400.000000pt"
    viewBox="0 0 400.000000 400.000000" preserveAspectRatio="xMidYMid meet">

    <g transform="translate(0.000000,400.000000) scale(0.100000,-0.100000)" fill="currentColor" stroke="none">
        <path d="M1283 3209 c-218 -37 -407 -205 -476 -424 -22 -70 -22 -74 -22 -780
0 -706 0 -710 22 -780 61 -193 215 -347 408 -408 70 -22 74 -22 780 -22 706 0
710 0 780 22 243 77 410 287 432 541 l6 74 -49 -35 c-84 -60 -161 -81 -294
-81 -128 1 -193 18 -281 75 -95 61 -173 171 -186 264 -3 25 -8 45 -12 45 -3 0
-28 -46 -55 -102 -40 -84 -61 -115 -120 -173 -112 -113 -217 -151 -387 -143
-130 7 -193 33 -274 112 -106 105 -162 254 -187 499 -13 134 1 413 28 546 34
165 105 232 194 186 50 -26 54 -62 42 -337 -20 -487 25 -687 176 -775 42 -25
56 -28 137 -28 78 0 99 4 153 29 74 34 138 100 178 184 48 102 68 193 95 442
11 102 24 202 30 222 21 80 118 106 174 48 34 -35 34 -44 14 -391 -12 -223 -7
-290 32 -394 28 -76 94 -145 171 -181 56 -26 73 -29 158 -28 96 1 176 22 238
62 l23 15 -3 616 -3 616 -27 73 c-70 194 -208 330 -398 395 -64 21 -72 22
-755 23 -379 1 -713 -2 -742 -7z" />
    </g>
</svg>